# xmcd
#
# Track frame offsets: 
#        150
#        12925
#        27941
#        42555
#        62044
#        86572
#        101059
#        123200
#        138394
#        154173
#        173372
#        184568
#        198847
#        216763
#
# Disc length: 3127 seconds
#
# Revision: 3
# Processed by: cddbd v1.5.2PL0 Copyright (c) Steve Scherf et al.
# Submitted via: ExactAudioCopy v1.0b4
#
DISCID=b40c350e
DTITLE=John Campbelljohn - Under The Blue Covers
DYEAR=2008
DGENRE=Blues, Delta Blues, Electric Blues
TTITLE0=Hey Hey Baby
TTITLE1=Rock This House
TTITLE2=30 Dirty Women
TTITLE3=Key To The Highway
TTITLE4=Kokomo Blues
TTITLE5=Seventh Son
TTITLE6=How Blue Can You Get
TTITLE7=You Don't Have To Go
TTITLE8=You Upset Me Baby
TTITLE9=Walkin' By Myself
TTITLE10=You Gotta Move
TTITLE11=Ask Me No Questions
TTITLE12=Baby Please Don't Go
TTITLE13=Watch Yourself
EXTD=
EXTT0=
EXTT1=
EXTT2=
EXTT3=
EXTT4=
EXTT5=
EXTT6=
EXTT7=
EXTT8=
EXTT9=
EXTT10=
EXTT11=
EXTT12=
EXTT13=
PLAYORDER=
